<svg width="700" height="700" viewBox="0 0 700 700" fill="none" xmlns="http://www.w3.org/2000/svg">
<path d="M523.6 280C523.6 274.059 521.237 268.363 517.037 264.16C512.838 259.961 507.139 257.601 501.197 257.601H255.527L346.586 172.703C351.172 168.715 353.942 163.032 354.254 156.957C354.571 150.883 352.399 144.945 348.247 140.504C344.094 136.063 338.313 133.5 332.235 133.407C326.157 133.309 320.297 135.692 316.008 140.001L183.348 263.591C178.805 267.825 176.227 273.759 176.227 279.97C176.227 286.18 178.805 292.115 183.348 296.349L316.008 419.999C321.859 425.459 330.18 427.385 337.836 425.049C345.492 422.709 351.32 416.467 353.125 408.666C354.929 400.869 352.437 392.701 346.586 387.236L255.527 302.396H501.197C507.138 302.396 512.838 300.037 517.037 295.838C521.236 291.635 523.599 285.939 523.599 279.998L523.6 280Z" fill="white"/>
</svg>
